# xmcd
#
# Track frame offsets: 
#        150
#        17033
#        31994
#        45930
#        60031
#        72675
#        89156
#        106406
#        120056
#        134201
#        156222
#        175723
#        188024
#        203594
#        216745
#
# Disc length: 3092 seconds
#
# Revision: 0
# Processed by: cddbd v1.5.2PL0 Copyright (c) Steve Scherf et al.
# Submitted via: ExactAudioCopy v1.0b3
#
DISCID=cf0c120f
DTITLE=Demis Roussos - Ainsi Soit-il
DYEAR=1977
DGENRE=Pop
TTITLE0=Ainsi Soit-il
TTITLE1=Tous Les Soleils De La Musique
TTITLE2=Les Nuits D'Emilyne
TTITLE3=Tes Yeux Me Disaient Adieu
TTITLE4=Un Coeur Qui Bat Pour Toi
TTITLE5=Sarah
TTITLE6=My Emotion
TTITLE7=Le Destin
TTITLE8=Et Je Fais Semblant
TTITLE9=Margarita
TTITLE10=Mourir Aupres De Mon Amour
TTITLE11=Mama Tembu's Wedding
TTITLE12=Hot Summernight
TTITLE13=Tout Est Vanite
TTITLE14=Pauvre Marin
EXTD=
EXTT0=
EXTT1=
EXTT2=
EXTT3=
EXTT4=
EXTT5=
EXTT6=
EXTT7=
EXTT8=
EXTT9=
EXTT10=
EXTT11=
EXTT12=
EXTT13=
EXTT14=
PLAYORDER=
